<svg xmlns="http://www.w3.org/2000/svg" viewBox="0 0 400 400" width="400" height="400">
  <defs>
    <linearGradient id="g" x1="0" y1="0" x2="1" y2="1">
      <stop offset="0%" stop-color="#0a0f0a"/><stop offset="100%" stop-color="#1a2c1a"/>
    </linearGradient>
  </defs>
  <rect width="400" height="400" fill="url(#g)"/>
  <g font-family="Helvetica, Arial, sans-serif">
    <text x="40" y="60" fill="#92d050" font-size="13" letter-spacing="3">OMNIAGENT</text>
    <text x="40" y="92" fill="#fff" font-size="22" font-weight="700">Multi-Agent Orchestration</text>
    <g transform="translate(200,250)" stroke="#92d050" stroke-width="1.5" fill="none">
      <circle r="40" fill="#0f1a0f" stroke="#92d050" stroke-width="2.5"/>
      <text x="-32" y="-2" fill="#92d050" font-size="13" font-weight="700">ORCH</text>
      <text x="-30" y="14" fill="#cfe9a8" font-size="10">router</text>
    </g>
    <g stroke="#92d050" fill="none">
      <line x1="200" y1="220" x2="80" y2="160"/>
      <line x1="200" y1="220" x2="200" y2="150"/>
      <line x1="200" y1="220" x2="320" y2="160"/>
      <line x1="200" y1="280" x2="100" y2="340"/>
      <line x1="200" y1="280" x2="300" y2="340"/>
    </g>
    <g font-size="10" fill="#cfe9a8">
      <circle cx="80" cy="150" r="22" fill="#000" stroke="#92d050" stroke-width="1.8"/>
      <text x="62" y="154">Search</text>
      <circle cx="200" cy="140" r="22" fill="#000" stroke="#92d050" stroke-width="1.8"/>
      <text x="184" y="144">SQL</text>
      <circle cx="320" cy="150" r="22" fill="#000" stroke="#92d050" stroke-width="1.8"/>
      <text x="304" y="154">RAG</text>
      <circle cx="100" cy="350" r="22" fill="#000" stroke="#92d050" stroke-width="1.8"/>
      <text x="84" y="354">MCP</text>
      <circle cx="300" cy="350" r="22" fill="#000" stroke="#92d050" stroke-width="1.8"/>
      <text x="284" y="354">Tools</text>
    </g>
    <text x="40" y="378" fill="#92d050" font-size="12" letter-spacing="2">AGENTS &middot; MCP &middot; TOOL CALLING</text>
  </g>
</svg>
