<svg xmlns="http://www.w3.org/2000/svg" viewBox="0 0 400 400" width="400" height="400">
  <defs>
    <linearGradient id="g" x1="0" y1="0" x2="1" y2="1">
      <stop offset="0%" stop-color="#0a0f0a"/><stop offset="100%" stop-color="#1a2c1a"/>
    </linearGradient>
  </defs>
  <rect width="400" height="400" fill="url(#g)"/>
  <g font-family="Helvetica, Arial, sans-serif">
    <text x="40" y="60" fill="#92d050" font-size="13" letter-spacing="3">SYNTHETIC DATA</text>
    <text x="40" y="92" fill="#fff" font-size="22" font-weight="700">GenAI Data Generation</text>
    <g transform="translate(40,130)" font-size="11" fill="#cfe9a8">
      <rect width="120" height="80" rx="6" fill="#000" stroke="#92d050"/>
      <text x="14" y="22" fill="#92d050" font-weight="700">REAL</text>
      <text x="14" y="42">id, name, ssn, dob</text>
      <text x="14" y="58">salary, region</text>
      <text x="14" y="74" fill="#e07b7b">[PII]</text>
      <g transform="translate(140,40)" stroke="#92d050" fill="none">
        <circle r="20" fill="#0f1a0f" stroke="#92d050" stroke-width="2"/>
        <text x="-12" y="4" fill="#92d050" font-size="11" font-weight="700">LLM</text>
      </g>
      <line x1="120" y1="40" x2="142" y2="40" stroke="#92d050" stroke-dasharray="3 3"/>
      <line x1="180" y1="40" x2="200" y2="40" stroke="#92d050" stroke-dasharray="3 3"/>
      <rect x="200" y="0" width="120" height="80" rx="6" fill="#000" stroke="#92d050"/>
      <text x="214" y="22" fill="#92d050" font-weight="700">SYNTHETIC</text>
      <text x="214" y="42">id, name, hash, dob</text>
      <text x="214" y="58">salary, region</text>
      <text x="214" y="74" fill="#92d050">[safe]</text>
    </g>
    <g transform="translate(40,240)">
      <rect width="320" height="110" rx="8" fill="#0f1a0f" stroke="#3a5a3a"/>
      <g fill="#92d050">
        <rect x="20" y="80" width="20" height="10"/>
        <rect x="50" y="60" width="20" height="30"/>
        <rect x="80" y="40" width="20" height="50"/>
        <rect x="110" y="50" width="20" height="40"/>
        <rect x="140" y="30" width="20" height="60"/>
        <rect x="170" y="20" width="20" height="70"/>
        <rect x="200" y="40" width="20" height="50"/>
        <rect x="230" y="60" width="20" height="30"/>
        <rect x="260" y="50" width="20" height="40"/>
        <rect x="290" y="70" width="20" height="20"/>
      </g>
      <text x="20" y="105" fill="#cfe9a8" font-size="10">distribution preserved</text>
    </g>
    <text x="40" y="378" fill="#92d050" font-size="12" letter-spacing="2">PRIVACY-SAFE &middot; SCALABLE &middot; TEST-READY</text>
  </g>
</svg>
