<svg xmlns="http://www.w3.org/2000/svg" viewBox="0 0 400 400" width="400" height="400">
  <defs>
    <linearGradient id="g" x1="0" y1="0" x2="1" y2="1">
      <stop offset="0%" stop-color="#0a0f0a"/><stop offset="100%" stop-color="#1a2c1a"/>
    </linearGradient>
  </defs>
  <rect width="400" height="400" fill="url(#g)"/>
  <g font-family="Helvetica, Arial, sans-serif">
    <text x="40" y="56" fill="#92d050" font-size="13" letter-spacing="3">AGENTIC AI PLATFORM</text>
    <text x="40" y="86" fill="#fff" font-size="19" font-weight="700">Self-Service &#183; YAML / GitOps</text>
    <g transform="translate(30,108)" font-size="10">
      <rect x="0" y="0" width="96" height="52" rx="4" fill="#000" stroke="#92d050"/>
      <text x="10" y="18" fill="#92d050" font-weight="700">.deere/*.yaml</text>
      <text x="10" y="32" fill="#cfe9a8">HostedAgent</text>
      <text x="10" y="45" fill="#cfe9a8">Tool &#183; Skill</text>
      <line x1="96" y1="26" x2="140" y2="26" stroke="#92d050" stroke-dasharray="3 3"/>
      <rect x="140" y="4" width="96" height="44" rx="6" fill="#0f1a0f" stroke="#92d050" stroke-width="2"/>
      <text x="152" y="24" fill="#92d050" font-size="11" font-weight="700">ANVIL GITOPS</text>
      <text x="152" y="38" fill="#cfe9a8" font-size="9">Lambda provision</text>
      <line x1="236" y1="26" x2="280" y2="26" stroke="#92d050" stroke-dasharray="3 3"/>
      <rect x="280" y="4" width="96" height="44" rx="6" fill="#0f1a0f" stroke="#92d050" stroke-width="2"/>
      <text x="292" y="24" fill="#92d050" font-size="11" font-weight="700">RECONCILER</text>
      <text x="292" y="38" fill="#cfe9a8" font-size="9">OmniAgent GraphQL</text>
    </g>
    <g transform="translate(30,178)" font-size="10">
      <rect x="140" y="0" width="96" height="34" rx="6" fill="#0f1a0f" stroke="#92d050" stroke-width="2"/>
      <text x="150" y="20" fill="#92d050" font-size="11" font-weight="700">EKS RUNTIME</text>
      <line x1="188" y1="34" x2="188" y2="58" stroke="#92d050"/>
      <line x1="188" y1="58" x2="70" y2="72" stroke="#92d050" stroke-dasharray="3 3"/>
      <line x1="188" y1="58" x2="188" y2="72" stroke="#92d050" stroke-dasharray="3 3"/>
      <line x1="188" y1="58" x2="306" y2="72" stroke="#92d050" stroke-dasharray="3 3"/>
    </g>
    <g transform="translate(30,250)" font-size="9">
      <rect x="0" y="0" width="112" height="46" rx="4" fill="#000" stroke="#92d050"/>
      <text x="10" y="18" fill="#92d050" font-weight="700">AGENT REGISTRY</text>
      <text x="10" y="32" fill="#cfe9a8">governed &#183; MCP</text>
      <rect x="124" y="0" width="112" height="46" rx="4" fill="#000" stroke="#92d050"/>
      <text x="134" y="18" fill="#92d050" font-weight="700">450+ MODELS</text>
      <text x="134" y="32" fill="#cfe9a8">multi-LLM routing</text>
      <rect x="248" y="0" width="112" height="46" rx="4" fill="#000" stroke="#92d050"/>
      <text x="258" y="18" fill="#92d050" font-weight="700">GRAPH MEMORY</text>
      <text x="258" y="32" fill="#cfe9a8">Neptune KG</text>
    </g>
    <g transform="translate(40,312)">
      <rect width="320" height="40" rx="8" fill="#0f1a0f" stroke="#92d050" stroke-width="1.5"/>
      <text x="14" y="18" fill="#92d050" font-size="11" font-weight="700">CAPABILITY REGISTRY</text>
      <text x="14" y="33" fill="#cfe9a8" font-size="10">auto-scans 14,000+ repos &#183; available to all users</text>
    </g>
    <text x="40" y="380" fill="#92d050" font-size="11" letter-spacing="2">YAML &#183; GITOPS &#183; MCP &#183; INFINITELY EXTENSIBLE</text>
  </g>
</svg>
