<svg xmlns="http://www.w3.org/2000/svg" viewBox="0 0 400 400" width="400" height="400">
  <defs>
    <linearGradient id="g" x1="0" y1="0" x2="1" y2="1">
      <stop offset="0%" stop-color="#0a0f0a"/><stop offset="100%" stop-color="#1a2c1a"/>
    </linearGradient>
  </defs>
  <rect width="400" height="400" fill="url(#g)"/>
  <g font-family="Helvetica, Arial, sans-serif">
    <text x="40" y="60" fill="#92d050" font-size="13" letter-spacing="3">ENTERPRISE AI GATEWAY</text>
    <text x="40" y="92" fill="#fff" font-size="22" font-weight="700">Model Routing &amp; Governance</text>
    <g transform="translate(0,130)" font-size="11" fill="#cfe9a8">
      <rect x="20" y="0" width="80" height="36" rx="4" fill="#000" stroke="#92d050"/>
      <text x="34" y="22">Apps</text>
      <rect x="20" y="50" width="80" height="36" rx="4" fill="#000" stroke="#92d050"/>
      <text x="34" y="72">Agents</text>
      <rect x="20" y="100" width="80" height="36" rx="4" fill="#000" stroke="#92d050"/>
      <text x="34" y="122">Notebooks</text>
      <rect x="150" y="40" width="100" height="60" rx="6" fill="#0f1a0f" stroke="#92d050" stroke-width="2"/>
      <text x="166" y="62" fill="#92d050" font-weight="700">GATEWAY</text>
      <text x="166" y="82" fill="#cfe9a8" font-size="9">auth &middot; rate &middot; route</text>
      <line x1="100" y1="18" x2="150" y2="55" stroke="#92d050"/>
      <line x1="100" y1="68" x2="150" y2="70" stroke="#92d050"/>
      <line x1="100" y1="118" x2="150" y2="85" stroke="#92d050"/>
      <rect x="290" y="0" width="90" height="32" rx="4" fill="#000" stroke="#92d050"/>
      <text x="304" y="20">OpenAI</text>
      <rect x="290" y="40" width="90" height="32" rx="4" fill="#000" stroke="#92d050"/>
      <text x="304" y="60">Anthropic</text>
      <rect x="290" y="80" width="90" height="32" rx="4" fill="#000" stroke="#92d050"/>
      <text x="304" y="100">Bedrock</text>
      <rect x="290" y="120" width="90" height="32" rx="4" fill="#000" stroke="#92d050"/>
      <text x="304" y="140">In-House</text>
      <line x1="250" y1="55" x2="290" y2="16" stroke="#92d050"/>
      <line x1="250" y1="65" x2="290" y2="56" stroke="#92d050"/>
      <line x1="250" y1="75" x2="290" y2="96" stroke="#92d050"/>
      <line x1="250" y1="85" x2="290" y2="136" stroke="#92d050"/>
    </g>
    <text x="40" y="378" fill="#92d050" font-size="12" letter-spacing="2">MULTI-PROVIDER &middot; RBAC &middot; OBSERVABILITY</text>
  </g>
</svg>
