<svg xmlns="http://www.w3.org/2000/svg" viewBox="0 0 400 400" width="400" height="400">
  <defs>
    <linearGradient id="g" x1="0" y1="0" x2="1" y2="1">
      <stop offset="0%" stop-color="#0a0f0a"/><stop offset="100%" stop-color="#1a2c1a"/>
    </linearGradient>
  </defs>
  <rect width="400" height="400" fill="url(#g)"/>
  <g font-family="Helvetica, Arial, sans-serif">
    <text x="40" y="60" fill="#92d050" font-size="13" letter-spacing="3">AI STUDIO</text>
    <text x="40" y="92" fill="#fff" font-size="22" font-weight="700">Prompt &#8594; UI Mock</text>
    <rect x="40" y="120" width="320" height="44" rx="6" fill="#000" stroke="#92d050"/>
    <text x="54" y="148" fill="#cfe9a8" font-size="13" font-family="Menlo, monospace">"Dashboard with 3 KPI tiles + chart"</text>
    <g transform="translate(40,190)">
      <rect width="320" height="160" rx="8" fill="#0f1a0f" stroke="#92d050" stroke-width="1.5"/>
      <rect x="14" y="14" width="92" height="56" rx="4" fill="#000" stroke="#92d050"/>
      <text x="22" y="34" fill="#92d050" font-size="10">REVENUE</text>
      <text x="22" y="56" fill="#fff" font-size="18" font-weight="700">$12.4M</text>
      <rect x="114" y="14" width="92" height="56" rx="4" fill="#000" stroke="#92d050"/>
      <text x="122" y="34" fill="#92d050" font-size="10">UNITS</text>
      <text x="122" y="56" fill="#fff" font-size="18" font-weight="700">8,210</text>
      <rect x="214" y="14" width="92" height="56" rx="4" fill="#000" stroke="#92d050"/>
      <text x="222" y="34" fill="#92d050" font-size="10">CSAT</text>
      <text x="222" y="56" fill="#fff" font-size="18" font-weight="700">94%</text>
      <polyline points="14,140 60,120 110,128 160,100 210,108 260,82 306,90" fill="none" stroke="#92d050" stroke-width="2"/>
      <line x1="14" y1="140" x2="306" y2="140" stroke="#3a5a3a"/>
    </g>
    <text x="40" y="378" fill="#92d050" font-size="12" letter-spacing="2">LLM &#183; UX PROTOTYPING &#183; LOW-CODE</text>
  </g>
</svg>
